<svg width="20" height="20" viewbox="0 0 20 20" fill="none" xmlns="http://www.w3.org/2000/svg">
                        <path
                            d="M6.5 1.66669H13.5C16.1667 1.66669 18.3333 3.83335 18.3333 6.50002V13.5C18.3333 14.7819 17.8241 16.0113 16.9177 16.9177C16.0113 17.8241 14.7819 18.3334 13.5 18.3334H6.5C3.83333 18.3334 1.66667 16.1667 1.66667 13.5V6.50002C1.66667 5.21814 2.17589 3.98876 3.08232 3.08234C3.98874 2.17591 5.21812 1.66669 6.5 1.66669ZM6.33333 3.33335C5.53768 3.33335 4.77462 3.64942 4.21201 4.21203C3.64941 4.77464 3.33333 5.5377 3.33333 6.33335V13.6667C3.33333 15.325 4.675 16.6667 6.33333 16.6667H13.6667C14.4623 16.6667 15.2254 16.3506 15.788 15.788C16.3506 15.2254 16.6667 14.4623 16.6667 13.6667V6.33335C16.6667 4.67502 15.325 3.33335 13.6667 3.33335H6.33333ZM14.375 4.58335C14.6513 4.58335 14.9162 4.6931 15.1116 4.88845C15.3069 5.0838 15.4167 5.34875 15.4167 5.62502C15.4167 5.90129 15.3069 6.16624 15.1116 6.36159C14.9162 6.55694 14.6513 6.66669 14.375 6.66669C14.0987 6.66669 13.8338 6.55694 13.6384 6.36159C13.4431 6.16624 13.3333 5.90129 13.3333 5.62502C13.3333 5.34875 13.4431 5.0838 13.6384 4.88845C13.8338 4.6931 14.0987 4.58335 14.375 4.58335ZM10 5.83335C11.1051 5.83335 12.1649 6.27234 12.9463 7.05374C13.7277 7.83514 14.1667 8.89495 14.1667 10C14.1667 11.1051 13.7277 12.1649 12.9463 12.9463C12.1649 13.7277 11.1051 14.1667 10 14.1667C8.89493 14.1667 7.83512 13.7277 7.05372 12.9463C6.27232 12.1649 5.83333 11.1051 5.83333 10C5.83333 8.89495 6.27232 7.83514 7.05372 7.05374C7.83512 6.27234 8.89493 5.83335 10 5.83335ZM10 7.50002C9.33696 7.50002 8.70107 7.76341 8.23223 8.23225C7.76339 8.70109 7.5 9.33698 7.5 10C7.5 10.6631 7.76339 11.2989 8.23223 11.7678C8.70107 12.2366 9.33696 12.5 10 12.5C10.663 12.5 11.2989 12.2366 11.7678 11.7678C12.2366 11.2989 12.5 10.6631 12.5 10C12.5 9.33698 12.2366 8.70109 11.7678 8.23225C11.2989 7.76341 10.663 7.50002 10 7.50002Z"
                            fill="white"></path>
                    </svg>