<svg width="118" height="40" viewbox="0 0 118 40" fill="none" xmlns="http://www.w3.org/2000/svg">
    <path
        d="M31.5385 38.8608L35.5081 33.109H19.5822C19.5822 33.109 18.9794 33.183 18.8079 32.5776C18.6413 31.977 18.9843 31.6445 18.9843 31.6445L23.9374 24.7006H16.2476L10.3992 32.5869C10.3992 32.5869 9.35104 34.347 9.27687 35.9086C9.20274 37.4748 10.4455 38.7129 12.0179 38.8608H31.5385ZM75.4037 38.81L84.9766 24.7931H101.335L96.8038 31.1408H88.0428L82.7418 38.81H75.4037ZM92.6708 13.3728H116.719L112.29 19.5677H88.497L92.6708 13.3728ZM64.9128 38.81L74.4808 24.7931H81.68L72.2509 38.81H64.9128ZM82.0737 13.3728H89.5588L85.3197 19.5677H77.8999L82.0737 13.3728ZM63.8608 38.81L62.0475 29.972C62.0475 29.972 65.7476 29.1866 68.113 27.1815C69.8708 25.6847 72.3898 20.0758 72.3898 20.0758C72.3898 20.0758 72.7982 18.8055 72.8994 17.5857C73.0024 16.366 72.2787 14.9573 71.9863 14.542C71.0306 13.192 69.4215 13.4232 69.4215 13.4232H51.9078L47.8826 19.5172H63.1698C63.1698 19.5172 63.833 19.4162 64.3378 19.9243C64.8491 20.4275 64.7968 20.9356 64.7968 21.1897C64.7968 21.4437 63.9343 22.9174 63.374 23.5781C62.812 24.2341 61.7404 24.6915 61.3336 24.7931C60.9252 24.8947 60.4694 24.8947 60.4694 24.8947H53.4907L56.3707 38.8099L63.8608 38.81ZM34.5819 38.81L44.1629 24.7931H51.4683L42.3267 38.81H34.5819ZM49.0931 13.4053L44.849 19.6002H20.3892C20.3892 19.6002 21.7337 17.4978 24.3964 15.5631C27.0592 13.6268 30.0225 13.3304 30.0225 13.3304L49.0931 13.4053Z"
        fill="#003A79"></path>
    <path
        d="M14.6336 8.56369C16.9572 7.76897 17.9225 7.34882 19.2065 8.70212C20.4872 10.0554 21.1358 11.8338 21.1358 11.8338C21.1358 11.8338 20.0364 12.9298 18.2509 13.5763C17.0732 14.0062 15.6307 14.2 15.6307 14.2C15.6307 14.2 15.9787 12.9656 16.3497 11.9494C16.7161 10.9283 17.8245 8.56369 17.8245 8.56369L16.6929 8.43342C16.6929 8.43342 15.3757 10.1987 14.3276 12.6334C13.5298 14.4899 13.0614 16.5793 13.0614 16.5793C13.0614 16.5793 17.1799 16.1168 19.5643 15.3498C21.9477 14.5827 23.7152 13.8939 24.1694 13.3858C24.6284 12.8777 25.473 11.6856 26.0202 8.59138C26.4842 5.96294 25.6625 4.09991 25.6625 4.09991C25.6625 4.09991 25.3651 3.96147 24.1318 4.50703C23.8949 4.61289 23.6825 4.72851 23.4914 4.83925C23.0879 5.07539 22.5733 5.58837 22.2956 5.96294C22.6844 6.78535 23.0749 8.08816 22.7726 9.23791C21.4053 7.16804 20.1899 6.07693 19.0676 5.69911C17.4396 5.15844 16.5815 5.42552 13.2793 6.90422C10.3992 8.19402 5.11203 11.2703 2.42202 12.9249C1.74489 13.345 1.28109 13.6268 1.28109 13.6268C1.28109 13.6268 12.1339 9.42193 14.6336 8.56369ZM19.9629 5.37992C19.9629 5.37992 20.9234 4.39141 22.74 3.39311C24.8326 2.2385 27.9544 1.13924 27.9544 1.13924C27.9544 1.13924 25.4452 1.60174 22.0735 3.18956C20.8156 3.7856 19.1787 5.12588 19.1787 5.12588L19.9629 5.37992Z"
        fill="#EE7E12"></path>
</svg>