<svg width="72" height="24" viewbox="0 0 72 24" fill="none" xmlns="http://www.w3.org/2000/svg">
                <path
                    d="M19.5231 23.3164L21.9049 19.8654H12.3493C12.3493 19.8654 11.9877 19.9098 11.8847 19.5466C11.7848 19.1862 11.9906 18.9867 11.9906 18.9867L14.9624 14.8203H10.3485L6.83948 19.5521C6.83948 19.5521 6.21061 20.6082 6.16611 21.5452C6.12163 22.4849 6.86732 23.2277 7.81072 23.3164H19.5231ZM45.8422 23.286L51.5859 14.8759H61.4012L58.6823 18.6845H53.4257L50.2451 23.286H45.8422ZM56.2025 8.02364H70.6314L67.9742 11.7406H53.6982L56.2025 8.02364ZM39.5477 23.286L45.2884 14.8759H49.608L43.9505 23.286H39.5477ZM49.8442 8.02364H54.3353L51.7918 11.7406H47.3399L49.8442 8.02364ZM38.9165 23.286L37.8285 17.9832C37.8285 17.9832 40.0485 17.5119 41.4678 16.3089C42.5224 15.4108 44.0338 12.0454 44.0338 12.0454C44.0338 12.0454 44.2789 11.2833 44.3397 10.5514C44.4014 9.81958 43.9672 8.97437 43.7917 8.7252C43.2184 7.91518 42.2529 8.05393 42.2529 8.05393H31.7447L29.3295 11.7103H38.5018C38.5018 11.7103 38.8998 11.6497 39.2027 11.9546C39.5094 12.2565 39.4781 12.5614 39.4781 12.7138C39.4781 12.8662 38.9606 13.7504 38.6244 14.1468C38.2872 14.5404 37.6442 14.8149 37.4002 14.8759C37.1551 14.9368 36.8816 14.9368 36.8816 14.9368H32.6944L34.4224 23.286L38.9165 23.286ZM21.3491 23.286L27.0977 14.8759H31.481L25.996 23.286H21.3491ZM30.0558 8.04318L27.5094 11.7601H12.8335C12.8335 11.7601 13.6402 10.4987 15.2378 9.33786C16.8355 8.17606 18.6135 7.99823 18.6135 7.99823L30.0558 8.04318Z"
                    fill="white"></path>
                <path
                    d="M9.38013 5.13821C10.7743 4.66137 11.3535 4.40928 12.1239 5.22126C12.8923 6.03325 13.2815 7.10025 13.2815 7.10025C13.2815 7.10025 12.6218 7.75786 11.5505 8.14577C10.8439 8.40373 9.97843 8.52001 9.97843 8.52001C9.97843 8.52001 10.1872 7.77935 10.4098 7.16963C10.6296 6.55698 11.2947 5.13821 11.2947 5.13821L10.6157 5.06004C10.6157 5.06004 9.82542 6.11924 9.19655 7.58003C8.71784 8.69393 8.43683 9.94758 8.43683 9.94758C8.43683 9.94758 10.9079 9.67007 12.3385 9.20985C13.7686 8.74963 14.8291 8.33631 15.1016 8.03145C15.377 7.72659 15.8838 7.01134 16.2121 5.15482C16.4905 3.57775 15.9975 2.45993 15.9975 2.45993C15.9975 2.45993 15.8191 2.37687 15.0791 2.70421C14.9369 2.76772 14.8095 2.83709 14.6948 2.90354C14.4527 3.04523 14.144 3.35301 13.9774 3.57775C14.2106 4.0712 14.4449 4.85289 14.2636 5.54274C13.4432 4.30082 12.7139 3.64615 12.0406 3.41946C11.0637 3.09505 10.5489 3.2553 8.56759 4.14253C6.83947 4.9164 3.6672 6.76218 2.0532 7.75493C1.64691 8.00702 1.36864 8.17606 1.36864 8.17606C1.36864 8.17606 7.8803 5.65315 9.38013 5.13821ZM12.5777 3.22794C12.5777 3.22794 13.154 2.63483 14.244 2.03586C15.4995 1.34309 17.3726 0.683533 17.3726 0.683533C17.3726 0.683533 15.8671 0.961034 13.8441 1.91373C13.0893 2.27135 12.1072 3.07552 12.1072 3.07552L12.5777 3.22794Z"
                    fill="white"></path>
            </svg>