<svg class="footer-svg" width="172" height="191" viewbox="0 0 172 191" fill="none"
                xmlns="http://www.w3.org/2000/svg" style="position: absolute;bottom: 0;left: 0;">
                <g clip-path="url(#clip0_7_99)">
                    <path
                        d="M-0.982117 92.3582C30.2577 81.6528 43.2355 75.9931 60.4982 94.2228C77.7171 112.453 86.4363 136.408 86.4363 136.408C86.4363 136.408 71.6553 151.172 47.6501 159.881C31.817 165.672 12.424 168.283 12.424 168.283C12.424 168.283 17.102 151.654 22.0898 137.966C27.016 124.211 41.9178 92.3582 41.9178 92.3582L26.7042 90.6032C26.7042 90.6032 8.99559 114.383 -5.0957 147.179C-15.8224 172.188 -22.119 200.333 -22.119 200.333C-22.119 200.333 33.2512 194.103 65.308 183.771C97.3517 173.438 121.115 164.159 127.221 157.314C133.393 150.47 144.747 134.412 152.105 92.7311C158.342 57.3245 147.295 32.2283 147.295 32.2283C147.295 32.2283 143.298 30.3636 126.716 37.7126C123.531 39.1385 120.676 40.6959 118.107 42.1877C112.682 45.3687 105.763 52.2789 102.03 57.3245C107.257 68.4028 112.506 85.9525 108.443 101.44C90.0601 73.558 73.7198 58.8601 58.6314 53.7705C36.7433 46.4874 25.2063 50.0851 -19.1892 70.0041C-57.9117 87.3784 -128.994 128.818 -165.16 151.106C-174.264 156.766 -180.499 160.561 -180.499 160.561C-180.499 160.561 -34.5894 103.919 -0.982117 92.3582ZM70.667 49.4709C70.667 49.4709 83.5811 36.155 108.004 22.7074C136.138 7.15403 178.109 -7.65363 178.109 -7.65363C178.109 -7.65363 144.374 -1.42344 99.0428 19.9654C82.1315 27.9944 60.1249 46.0488 60.1249 46.0488L70.667 49.4709Z"
                        fill="#8ECAE6" fill-opacity="0.08"></path>
                </g>
                <defs>
                    <clippath id="clip0_7_99">
                        <rect width="363" height="229" fill="white" transform="translate(-191 -23)"></rect>
                    </clippath>
                </defs>
            </svg>