<svg width="20" height="20" viewbox="0 0 20 20" fill="none" xmlns="http://www.w3.org/2000/svg">
                        <path
                            d="M13.6333 11.6667C13.7 11.1167 13.75 10.5667 13.75 10C13.75 9.43335 13.7 8.88335 13.6333 8.33335H16.45C16.5833 8.86669 16.6667 9.42502 16.6667 10C16.6667 10.575 16.5833 11.1334 16.45 11.6667M12.1583 16.3C12.6583 15.375 13.0417 14.375 13.3083 13.3334H15.7667C14.9593 14.7236 13.6784 15.7767 12.1583 16.3ZM11.95 11.6667H8.05C7.96666 11.1167 7.91666 10.5667 7.91666 10C7.91666 9.43335 7.96666 8.87502 8.05 8.33335H11.95C12.025 8.87502 12.0833 9.43335 12.0833 10C12.0833 10.5667 12.025 11.1167 11.95 11.6667ZM10 16.6334C9.30833 15.6334 8.75 14.525 8.40833 13.3334H11.5917C11.25 14.525 10.6917 15.6334 10 16.6334ZM6.66666 6.66669H4.23333C5.0322 5.27255 6.31221 4.21772 7.83333 3.70002C7.33333 4.62502 6.95833 5.62502 6.66666 6.66669ZM4.23333 13.3334H6.66666C6.95833 14.375 7.33333 15.375 7.83333 16.3C6.31522 15.7769 5.0369 14.7235 4.23333 13.3334ZM3.55 11.6667C3.41666 11.1334 3.33333 10.575 3.33333 10C3.33333 9.42502 3.41666 8.86669 3.55 8.33335H6.36666C6.3 8.88335 6.25 9.43335 6.25 10C6.25 10.5667 6.3 11.1167 6.36666 11.6667M10 3.35835C10.6917 4.35835 11.25 5.47502 11.5917 6.66669H8.40833C8.75 5.47502 9.30833 4.35835 10 3.35835ZM15.7667 6.66669H13.3083C13.0471 5.6347 12.6609 4.63844 12.1583 3.70002C13.6917 4.22502 14.9667 5.28335 15.7667 6.66669ZM10 1.66669C5.39166 1.66669 1.66666 5.41669 1.66666 10C1.66666 12.2102 2.54464 14.3298 4.10744 15.8926C4.88126 16.6664 5.79992 17.2802 6.81097 17.699C7.82201 18.1178 8.90565 18.3334 10 18.3334C12.2101 18.3334 14.3298 17.4554 15.8926 15.8926C17.4554 14.3298 18.3333 12.2102 18.3333 10C18.3333 8.90567 18.1178 7.82204 17.699 6.81099C17.2802 5.79994 16.6664 4.88129 15.8926 4.10746C15.1187 3.33364 14.2001 2.71981 13.189 2.30102C12.178 1.88224 11.0943 1.66669 10 1.66669Z"
                            fill="white"></path>
                    </svg>